<svg version="1.1" id="Calque_1" xmlns="http://www.w3.org/2000/svg" x="0" y="0" viewBox="0 0 308 109.3" xml:space="preserve"><style>.st0{fill-rule:evenodd;clip-rule:evenodd;fill:#444}</style><path class="st0" d="M147.7 44.5c-2.9 0-5.1.9-6.6 2.9-1.4 1.9-2.2 4.8-2.1 8.7 0 3.9.7 6.8 2.2 8.7 1.4 1.9 3.6 2.9 6.5 2.9 5.8 0 8.7-3.9 8.7-11.6s-2.9-11.6-8.7-11.6zM207.1 44.1c-.6 2-2 7-4.5 14.9h9c-2.3-7.4-3.6-11.6-3.9-12.6s-.5-1.7-.6-2.3zM113 44.5c-2.9 0-5.1.9-6.6 2.9-1.5 1.9-2.2 4.8-2.1 8.7 0 3.9.7 6.8 2.2 8.7 1.4 1.9 3.6 2.9 6.5 2.9 5.8 0 8.7-3.9 8.7-11.6s-2.9-11.6-8.7-11.6zM239.3 44.5c-2.9 0-5.1.9-6.6 2.9-1.5 1.9-2.2 4.8-2.1 8.7 0 3.9.7 6.8 2.2 8.7 1.4 1.9 3.6 2.9 6.5 2.9 5.8 0 8.7-3.9 8.7-11.6s-2.9-11.6-8.7-11.6z"/><path class="st0" d="M258.7 15.3h-211c-5.5 0-10 4.4-10 10v62c0 5.5 4.5 10 10 10h211c5.5 0 10-4.5 10-10v-62c0-5.5-4.5-10-10-10zM80.2 73.4l-4.7-18.1c-.2-.7-.5-2-.9-4-.4-2.1-.6-3.4-.7-4.1-.1.9-.3 2.2-.7 4.1-.4 1.9-.7 3.2-.9 4l-4.6 18h-8.3l-8.8-34.4h7.2l4.4 18.8c.8 3.4 1.4 6.5 1.7 9 0-.9.3-2.3.6-4.2.4-1.9.7-3.4 1-4.4l5-19.3h6.9l5 19.3c.2.9.5 2.2.8 4 .4 1.8.6 3.3.8 4.6.2-1.2.5-2.8.8-4.6.3-1.8.6-3.3.9-4.4l4.4-18.8h7.2l-8.8 34.5h-8.3zm44.9-4.3c-2.9 3.1-6.9 4.6-12.2 4.6-5.3 0-9.4-1.5-12.2-4.6s-4.2-7.5-4.2-13.2c0-5.7 1.5-10.1 4.3-13.1s6.9-4.5 12.2-4.5c5.2 0 9.3 1.6 12.1 4.6 2.8 3.1 4.2 7.4 4.2 13.1 0 5.7-1.4 10-4.2 13.1zm34.8 0c-2.9 3.1-6.9 4.6-12.2 4.6-5.3 0-9.4-1.5-12.2-4.6s-4.2-7.5-4.2-13.2c0-5.7 1.5-10.1 4.3-13.1s6.9-4.5 12.2-4.5c5.2 0 9.3 1.6 12.1 4.6 2.8 3.1 4.2 7.4 4.2 13.1 0 5.7-1.4 10-4.2 13.1zm56 4.2l-2.5-8.2h-12.6l-2.5 8.2h-7.9l.3-1c-2.8 1.1-5.8 1.7-9.1 1.7-5 0-8.8-1.6-11.5-4.6-2.7-3.1-4-7.4-4-13.1 0-3.6.7-6.7 2-9.4s3.2-4.8 5.6-6.2c2.5-1.5 5.3-2.2 8.6-2.2 3.4 0 6.7.8 10.1 2.4l-2.4 5.9c-1.3-.6-2.6-1.1-3.9-1.6-1.3-.5-2.6-.7-3.7-.5-2.8 0-4.9 1-6.4 3.1-1.5 2-2.3 4.9-2.3 8.6 0 7.7 2.8 11.5 8.6 11.5 2.4 0 5.4-.6 8.8-1.8v5.2l11.5-32.6h8.9l12.2 34.6h-7.8zm35.5-4.2c-2.9 3.1-6.9 4.6-12.2 4.6-5.3 0-9.4-1.5-12.2-4.6s-4.2-7.5-4.2-13.2c0-5.7 1.5-10.1 4.3-13.1s6.9-4.5 12.2-4.5c5.2 0 9.3 1.6 12.1 4.6 2.8 3.1 4.2 7.4 4.2 13.1 0 5.7-1.4 10-4.2 13.1z"/></svg>
